<svg width="115" height="22" viewBox="0 0 115 22" fill="none" xmlns="http://www.w3.org/2000/svg">
<path d="M9.68359 1.09375H13.5254L13.5391 14.8887C13.5299 15.8366 13.3477 16.7025 12.9922 17.4863C12.6458 18.2611 12.1673 18.931 11.5566 19.4961C10.946 20.0612 10.2259 20.4987 9.39648 20.8086C8.57617 21.1185 7.69206 21.2734 6.74414 21.2734C5.74154 21.2734 4.83008 21.1458 4.00977 20.8906C3.18945 20.6354 2.48763 20.2526 1.9043 19.7422C1.31185 19.2409 0.851562 18.6074 0.523438 17.8418C0.195312 17.0762 0.0266927 16.1784 0.0175781 15.1484H3.87305C3.87305 15.6224 3.91862 16.0371 4.00977 16.3926C4.10091 16.748 4.23763 17.0488 4.41992 17.2949C4.6569 17.5957 4.9668 17.819 5.34961 17.9648C5.73242 18.1107 6.19727 18.1836 6.74414 18.1836C7.18164 18.1836 7.58268 18.1016 7.94727 17.9375C8.31185 17.7643 8.62174 17.5319 8.87695 17.2402C9.13216 16.9486 9.32812 16.6022 9.46484 16.2012C9.61068 15.791 9.68359 15.3535 9.68359 14.8887V1.09375ZM26.4863 21C26.3952 20.8177 26.3177 20.6081 26.2539 20.3711C26.1901 20.1341 26.1354 19.8835 26.0898 19.6191C25.8802 19.847 25.6387 20.0612 25.3652 20.2617C25.0918 20.4622 24.791 20.6354 24.4629 20.7812C24.1257 20.9362 23.7565 21.0547 23.3555 21.1367C22.9544 21.2279 22.5215 21.2734 22.0566 21.2734C21.3001 21.2734 20.6029 21.1641 19.9648 20.9453C19.3359 20.7266 18.7936 20.4212 18.3379 20.0293C17.8822 19.6374 17.5267 19.1725 17.2715 18.6348C17.0163 18.0879 16.8887 17.4954 16.8887 16.8574C16.8887 16.0371 17.0482 15.3125 17.3672 14.6836C17.6862 14.0456 18.1647 13.5215 18.8027 13.1113C19.377 12.7376 20.0833 12.4551 20.9219 12.2637C21.7695 12.0632 22.7402 11.9629 23.834 11.9629H25.9531V11.0879C25.9531 10.7415 25.8984 10.4316 25.7891 10.1582C25.6797 9.87565 25.5156 9.63411 25.2969 9.43359C25.069 9.22396 24.7819 9.06445 24.4355 8.95508C24.0983 8.83659 23.7018 8.77734 23.2461 8.77734C22.8451 8.77734 22.4987 8.82747 22.207 8.92773C21.9154 9.01888 21.6784 9.15104 21.4961 9.32422C21.332 9.47917 21.209 9.66602 21.127 9.88477C21.054 10.1035 21.0176 10.3451 21.0176 10.6094H17.2168C17.2168 9.98047 17.3535 9.38346 17.627 8.81836C17.9095 8.25326 18.3197 7.75651 18.8574 7.32812C19.3861 6.89974 20.0332 6.5625 20.7988 6.31641C21.5736 6.0612 22.4577 5.93359 23.4512 5.93359C24.3444 5.93359 25.1738 6.04297 25.9395 6.26172C26.7142 6.48047 27.3841 6.80404 27.9492 7.23242C28.5143 7.66081 28.9564 8.20312 29.2754 8.85938C29.5944 9.50651 29.7539 10.2585 29.7539 11.1152V17.459C29.7539 18.252 29.804 18.9082 29.9043 19.4277C30.0046 19.9473 30.1504 20.3939 30.3418 20.7676V21H26.4863ZM22.8633 18.334C23.2461 18.334 23.6016 18.2884 23.9297 18.1973C24.2578 18.1061 24.554 17.9876 24.8184 17.8418C25.0827 17.696 25.3105 17.5319 25.502 17.3496C25.6934 17.1582 25.8438 16.9668 25.9531 16.7754V14.2324H24.0117C23.4193 14.2324 22.9134 14.2917 22.4941 14.4102C22.0749 14.5195 21.7331 14.6745 21.4688 14.875C21.2044 15.0846 21.0085 15.3353 20.8809 15.627C20.7533 15.9095 20.6895 16.2194 20.6895 16.5566C20.6895 16.821 20.735 17.0671 20.8262 17.2949C20.9264 17.5137 21.0677 17.7005 21.25 17.8555C21.4323 18.0013 21.6556 18.1198 21.9199 18.2109C22.1934 18.293 22.5078 18.334 22.8633 18.334ZM34.8535 0H43.125V17.9102H47.3633V21H34.8535V17.9102H39.2832V3.10352H34.8535V0ZM60.1191 21C60.028 20.8177 59.9505 20.6081 59.8867 20.3711C59.8229 20.1341 59.7682 19.8835 59.7227 19.6191C59.513 19.847 59.2715 20.0612 58.998 20.2617C58.7246 20.4622 58.4238 20.6354 58.0957 20.7812C57.7585 20.9362 57.3893 21.0547 56.9883 21.1367C56.5872 21.2279 56.1543 21.2734 55.6895 21.2734C54.9329 21.2734 54.2357 21.1641 53.5977 20.9453C52.9688 20.7266 52.4264 20.4212 51.9707 20.0293C51.515 19.6374 51.1595 19.1725 50.9043 18.6348C50.6491 18.0879 50.5215 17.4954 50.5215 16.8574C50.5215 16.0371 50.681 15.3125 51 14.6836C51.319 14.0456 51.7975 13.5215 52.4355 13.1113C53.0098 12.7376 53.7161 12.4551 54.5547 12.2637C55.4023 12.0632 56.373 11.9629 57.4668 11.9629H59.5859V11.0879C59.5859 10.7415 59.5312 10.4316 59.4219 10.1582C59.3125 9.87565 59.1484 9.63411 58.9297 9.43359C58.7018 9.22396 58.4147 9.06445 58.0684 8.95508C57.7311 8.83659 57.3346 8.77734 56.8789 8.77734C56.4779 8.77734 56.1315 8.82747 55.8398 8.92773C55.5482 9.01888 55.3112 9.15104 55.1289 9.32422C54.9648 9.47917 54.8418 9.66602 54.7598 9.88477C54.6868 10.1035 54.6504 10.3451 54.6504 10.6094H50.8496C50.8496 9.98047 50.9863 9.38346 51.2598 8.81836C51.5423 8.25326 51.9525 7.75651 52.4902 7.32812C53.0189 6.89974 53.666 6.5625 54.4316 6.31641C55.2064 6.0612 56.0905 5.93359 57.084 5.93359C57.9772 5.93359 58.8066 6.04297 59.5723 6.26172C60.347 6.48047 61.0169 6.80404 61.582 7.23242C62.1471 7.66081 62.5892 8.20312 62.9082 8.85938C63.2272 9.50651 63.3867 10.2585 63.3867 11.1152V17.459C63.3867 18.252 63.4368 18.9082 63.5371 19.4277C63.6374 19.9473 63.7832 20.3939 63.9746 20.7676V21H60.1191ZM56.4961 18.334C56.8789 18.334 57.2344 18.2884 57.5625 18.1973C57.8906 18.1061 58.1868 17.9876 58.4512 17.8418C58.7155 17.696 58.9434 17.5319 59.1348 17.3496C59.3262 17.1582 59.4766 16.9668 59.5859 16.7754V14.2324H57.6445C57.0521 14.2324 56.5462 14.2917 56.127 14.4102C55.7077 14.5195 55.3659 14.6745 55.1016 14.875C54.8372 15.0846 54.6413 15.3353 54.5137 15.627C54.3861 15.9095 54.3223 16.2194 54.3223 16.5566C54.3223 16.821 54.3678 17.0671 54.459 17.2949C54.5592 17.5137 54.7005 17.7005 54.8828 17.8555C55.0651 18.0013 55.2884 18.1198 55.5527 18.2109C55.8262 18.293 56.1406 18.334 56.4961 18.334ZM67.6934 21V6.20703H71.1387L71.3711 8.25781C71.5625 7.98438 71.7721 7.73372 72 7.50586C72.2279 7.27799 72.4694 7.07292 72.7246 6.89062C73.1621 6.58073 73.6406 6.34375 74.1602 6.17969C74.6797 6.01562 75.2311 5.93359 75.8145 5.93359C76.5618 5.93359 77.2454 6.04297 77.8652 6.26172C78.485 6.48047 79.0228 6.82682 79.4785 7.30078C79.9251 7.78385 80.2715 8.40365 80.5176 9.16016C80.7728 9.90755 80.9004 10.819 80.9004 11.8945V21H77.0996V11.9492C77.0996 11.3659 77.0312 10.8874 76.8945 10.5137C76.7669 10.1309 76.5801 9.83008 76.334 9.61133C76.0879 9.39258 75.7917 9.24219 75.4453 9.16016C75.099 9.06901 74.707 9.02344 74.2695 9.02344C73.9049 9.02344 73.5677 9.06445 73.2578 9.14648C72.957 9.22852 72.6882 9.35156 72.4512 9.51562C72.2598 9.63411 72.0866 9.77539 71.9316 9.93945C71.7767 10.1035 71.6354 10.2858 71.5078 10.4863V21H67.6934ZM85.2207 1.09375H96.7324V4.19727H92.8496V17.9102H96.7324V21H85.2207V17.9102H89.0078V4.19727H85.2207V1.09375ZM101.326 21V6.20703H104.771L105.004 8.25781C105.195 7.98438 105.405 7.73372 105.633 7.50586C105.861 7.27799 106.102 7.07292 106.357 6.89062C106.795 6.58073 107.273 6.34375 107.793 6.17969C108.312 6.01562 108.864 5.93359 109.447 5.93359C110.195 5.93359 110.878 6.04297 111.498 6.26172C112.118 6.48047 112.656 6.82682 113.111 7.30078C113.558 7.78385 113.904 8.40365 114.15 9.16016C114.406 9.90755 114.533 10.819 114.533 11.8945V21H110.732V11.9492C110.732 11.3659 110.664 10.8874 110.527 10.5137C110.4 10.1309 110.213 9.83008 109.967 9.61133C109.721 9.39258 109.424 9.24219 109.078 9.16016C108.732 9.06901 108.34 9.02344 107.902 9.02344C107.538 9.02344 107.201 9.06445 106.891 9.14648C106.59 9.22852 106.321 9.35156 106.084 9.51562C105.893 9.63411 105.719 9.77539 105.564 9.93945C105.41 10.1035 105.268 10.2858 105.141 10.4863V21H101.326Z" fill="#4A8EB6"/>
</svg>
